<?xml version="1.0" standalone="no"?>
<!DOCTYPE svg PUBLIC "-//W3C//DTD SVG 20010904//EN"
 "http://www.w3.org/TR/2001/REC-SVG-20010904/DTD/svg10.dtd">
<svg version="1.0" xmlns="http://www.w3.org/2000/svg"
 width="1080.000000pt" height="1080.000000pt" viewBox="0 0 1080.000000 1080.000000"
 preserveAspectRatio="xMidYMid meet">

<g transform="translate(0.000000,1080.000000) scale(0.100000,-0.100000)"
fill="#000000" stroke="none">
<path d="M5199 10337 c-19 -13 -53 -43 -77 -67 l-42 -43 -68 6 c-76 8 -80 5
-184 -85 -29 -25 -89 -67 -133 -93 -112 -66 -159 -107 -222 -194 -31 -42 -86
-116 -123 -166 -119 -158 -158 -257 -171 -435 -8 -100 -16 -145 -44 -225 -24
-71 -37 -131 -45 -210 -22 -235 -13 -324 65 -645 46 -192 56 -248 65 -385 6
-88 15 -194 20 -235 5 -41 9 -129 10 -195 1 -66 8 -142 16 -170 l13 -50 -4 70
c-7 103 -7 271 0 635 7 349 9 361 67 490 43 96 50 147 38 275 -14 139 -2 185
60 241 57 52 82 66 165 95 65 22 82 24 235 21 91 -2 217 -5 280 -6 107 -2 120
-5 180 -34 108 -53 176 -43 326 49 110 68 143 78 248 79 111 0 157 -19 201
-84 16 -24 45 -54 63 -67 l34 -23 93 19 94 18 61 -24 c129 -51 161 -104 136
-225 -24 -116 -29 -211 -16 -260 10 -35 31 -64 91 -124 94 -94 95 -99 83 -299
-9 -143 -9 -192 -3 -571 2 -121 -2 -204 -10 -240 -13 -60 -40 -185 -46 -213
-6 -33 23 2 31 36 4 18 19 71 35 119 47 149 71 282 74 418 2 116 4 131 32 190
41 89 53 149 52 260 -1 88 30 330 77 601 8 51 16 151 17 223 1 130 0 132 -41
244 -23 62 -60 179 -81 260 -22 82 -48 171 -59 199 -55 144 -304 425 -525 592
-72 54 -156 101 -181 101 -8 0 -52 20 -99 44 -49 26 -105 47 -133 51 -27 3
-97 17 -156 30 -123 29 -177 31 -258 10 -52 -13 -65 -13 -122 0 -81 19 -79 19
-119 -8z"/>
<path d="M6149 8126 c-4 -4 -69 -11 -146 -16 -77 -5 -164 -15 -194 -21 -73
-15 -167 -59 -206 -96 -36 -34 -52 -91 -34 -129 13 -29 48 -31 131 -10 73 18
110 24 243 41 62 8 147 20 189 27 88 14 167 3 272 -38 33 -13 66 -24 73 -24
41 0 18 100 -37 163 -53 60 -134 99 -218 104 -37 3 -70 2 -73 -1z"/>
<path d="M4507 8058 c-45 -14 -83 -34 -110 -59 l-42 -37 -4 -86 c-4 -101 6
-111 66 -73 63 41 132 52 323 52 176 0 370 -24 379 -46 1 -6 18 6 37 25 29 30
34 42 34 81 0 27 -6 52 -14 61 -44 44 -173 72 -431 93 -162 14 -156 14 -238
-11z"/>
<path d="M4698 7841 c-59 -12 -148 -63 -154 -88 -4 -13 -10 -23 -15 -23 -5 0
-9 -8 -9 -17 0 -14 7 -10 28 14 36 43 125 82 197 87 55 4 149 -15 170 -35 5
-5 15 -9 23 -9 7 0 20 -7 28 -15 17 -16 34 -20 34 -7 0 11 -41 46 -63 55 -9 3
-17 12 -17 19 0 8 -14 14 -37 14 -21 1 -63 4 -93 7 -30 3 -71 2 -92 -2z"/>
<path d="M5720 7841 c0 -5 9 -7 20 -4 11 3 20 7 20 9 0 2 -9 4 -20 4 -11 0
-20 -4 -20 -9z"/>
<path d="M5807 7816 c-32 -13 -64 -29 -72 -36 -8 -7 -15 -8 -15 -3 0 5 9 17
21 26 11 10 18 21 14 25 -4 4 -20 -8 -36 -26 -32 -36 -41 -40 -33 -14 5 16 5
16 -6 0 -6 -9 -17 -15 -25 -11 -9 3 -21 0 -29 -6 -7 -6 -20 -9 -28 -6 -17 7
-32 -43 -22 -70 7 -17 24 -20 24 -5 0 6 9 10 20 10 13 0 20 7 20 19 0 27 17
36 37 19 15 -11 16 -11 10 5 -4 11 -2 17 7 17 8 0 16 -5 18 -11 2 -7 29 2 68
22 60 30 73 33 165 35 l100 2 -80 -9 c-44 -5 -91 -10 -105 -11 -14 -2 -24 -9
-22 -16 1 -7 -6 -16 -15 -19 -10 -4 -23 -12 -29 -17 -6 -6 -28 -24 -49 -41
-56 -45 -65 -55 -65 -71 0 -9 25 4 66 36 36 28 84 60 106 71 l40 20 -7 -30
c-14 -64 49 -131 122 -131 72 0 135 63 120 120 -9 33 20 24 63 -21 46 -47 48
-55 19 -62 -41 -11 -10 -25 33 -16 70 16 72 22 28 72 -16 19 -26 37 -22 41 4
4 0 6 -8 4 -8 -1 -14 2 -13 9 2 8 -4 10 -14 6 -9 -3 -21 0 -27 8 -6 8 -27 20
-46 27 l-35 12 45 -6 c55 -6 145 -57 165 -92 13 -24 14 -25 15 -6 1 57 -95
116 -215 133 -44 6 -118 13 -165 16 -75 5 -92 3 -143 -19z m280 -22 c-3 -3
-12 -4 -19 -1 -8 3 -5 6 6 6 11 1 17 -2 13 -5z m-97 -124 c0 -5 -4 -10 -10
-10 -5 0 -10 5 -10 10 0 6 5 10 10 10 6 0 10 -4 10 -10z"/>
<path d="M4966 7816 c17 -8 41 -24 52 -36 16 -17 27 -21 48 -16 17 5 30 3 34
-5 4 -6 13 -8 19 -5 8 5 6 15 -6 31 -14 19 -27 24 -60 25 -23 0 -45 5 -48 10
-3 6 -21 10 -38 10 l-32 -1 31 -13z m107 -23 c-7 -2 -19 -2 -25 0 -7 3 -2 5
12 5 14 0 19 -2 13 -5z"/>
<path d="M5690 7820 c0 -5 5 -10 10 -10 6 0 10 5 10 10 0 6 -4 10 -10 10 -5 0
-10 -4 -10 -10z"/>
<path d="M5597 7799 c4 -14 10 -15 39 -6 46 14 43 28 -5 26 -30 -2 -37 -6 -34
-20z"/>
<path d="M6866 7781 c-12 -19 -23 -138 -17 -181 9 -64 19 -32 27 90 6 92 4
114 -10 91z"/>
<path d="M4705 7736 c-67 -17 -102 -36 -160 -89 -52 -46 -57 -77 -12 -77 13 0
27 -4 33 -9 14 -13 74 -31 74 -22 0 5 -13 14 -30 21 -16 7 -30 17 -30 23 0 16
82 97 98 97 10 0 12 -7 9 -22 -8 -28 28 -93 60 -107 78 -36 168 17 168 100 0
35 1 36 25 27 31 -12 90 -55 112 -82 18 -22 35 -17 21 7 -4 8 -35 37 -67 66
-89 77 -179 97 -301 67z m85 -110 c0 -8 -4 -17 -9 -21 -12 -7 -24 12 -16 25 9
15 25 12 25 -4z"/>
<path d="M5738 7603 c6 -2 18 -2 25 0 6 3 1 5 -13 5 -14 0 -19 -2 -12 -5z"/>
<path d="M5688 6991 c2 -27 2 -61 -2 -74 -7 -28 -34 -43 -50 -27 -13 13 -29
13 -21 0 3 -5 2 -10 -3 -10 -6 0 -12 7 -16 15 -7 18 -67 20 -98 4 -12 -6 -33
-24 -47 -39 -14 -15 -34 -30 -44 -33 -10 -4 -15 -11 -12 -17 3 -5 -1 -10 -10
-10 -9 0 -13 5 -10 10 3 6 2 10 -4 10 -5 0 -11 -5 -13 -11 -7 -20 -79 10 -127
53 -36 31 -51 38 -87 38 -34 0 -46 -5 -62 -27 l-19 -26 -19 28 c-13 19 -19 47
-19 82 0 29 -3 53 -7 53 -12 0 -9 -119 3 -143 28 -54 50 -67 108 -66 31 1 49
3 41 5 -21 6 -45 44 -28 44 6 0 21 -9 32 -19 22 -21 119 -59 176 -70 29 -5 43
-1 78 22 26 18 52 27 66 25 16 -3 22 0 23 14 2 15 -3 18 -20 12 -12 -4 -18 -3
-14 2 10 10 77 12 77 2 0 -3 -6 -8 -12 -11 -24 -8 1 -20 41 -20 82 0 128 64
118 162 -3 30 -10 58 -15 63 -6 6 -7 -11 -4 -41z m-552 -178 c-6 -6 -36 9 -36
18 0 4 -7 6 -15 3 -8 -4 -15 -2 -15 3 0 21 14 21 41 1 16 -12 27 -23 25 -25z"/>
<path d="M5438 6763 c-10 -2 -18 -8 -18 -12 0 -4 -13 -22 -29 -41 l-28 -35
-57 38 c-78 52 -119 51 -188 -4 -29 -23 -110 -70 -180 -105 -159 -80 -221
-124 -254 -180 -31 -52 -54 -134 -54 -190 0 -46 -19 -71 -38 -52 -6 6 -14 9
-18 5 -8 -8 92 -175 159 -265 110 -148 261 -306 337 -354 108 -67 355 -99 495
-63 127 33 285 112 390 195 22 17 41 27 43 21 5 -15 22 -3 22 15 0 9 54 73
120 143 66 70 144 158 173 197 102 136 205 365 251 562 29 121 29 151 2 80
-10 -24 -41 -81 -70 -128 -29 -47 -75 -125 -101 -175 -26 -49 -61 -107 -78
-128 -37 -48 -110 -91 -140 -83 -30 7 -160 135 -202 199 -50 75 -214 216 -278
240 -27 10 -130 82 -151 106 -19 20 -62 26 -108 14z m-151 -218 c44 -19 72
-19 97 0 33 25 87 18 147 -18 220 -136 201 -123 266 -187 59 -58 74 -82 84
-133 12 -65 -6 -122 -78 -239 -105 -173 -158 -207 -289 -188 -38 5 -103 10
-143 10 -96 0 -234 18 -289 37 -35 12 -51 26 -79 72 -20 31 -58 80 -85 108
-79 85 -106 173 -77 250 22 58 151 167 294 248 113 64 102 61 152 40z"/>
<path d="M5210 6475 c0 -3 12 -10 28 -16 16 -7 22 -13 14 -16 -7 -3 -26 0 -42
7 -23 10 -35 9 -60 -1 -16 -8 -30 -17 -30 -21 0 -5 -5 -8 -11 -8 -6 0 -25 -10
-42 -22 -42 -30 -88 -57 -109 -64 -25 -9 -22 -21 6 -28 14 -3 64 7 122 25 97
30 101 31 190 19 61 -7 111 -8 155 -1 88 13 92 12 195 -16 64 -17 97 -22 109
-16 15 9 13 13 -17 31 -18 12 -53 35 -78 52 -79 54 -138 80 -179 80 -38 0
-101 -27 -101 -42 0 -13 -28 -9 -42 5 -22 22 -108 47 -108 32z"/>
<path d="M5245 6130 c-27 -5 -71 -12 -97 -15 -50 -7 -80 -27 -72 -48 7 -19 98
-62 171 -82 45 -13 86 -16 142 -13 70 4 87 9 145 44 93 55 97 82 13 102 -60
15 -243 22 -302 12z"/>
<path d="M3250 5920 c-235 -8 -338 -16 -380 -32 -39 -14 -69 -48 -80 -89 -15
-55 -128 -145 -247 -195 -48 -21 -52 -24 -23 -20 137 21 275 35 281 29 6 -7
13 -100 10 -139 -1 -12 -151 -33 -261 -35 -92 -3 -110 -7 -110 -27 0 -12 15
-14 97 -10 90 5 101 3 167 -24 118 -48 116 -46 116 -142 0 -58 -4 -85 -13 -89
-15 -6 -85 6 -231 40 -74 17 -112 21 -119 14 -12 -12 11 -23 116 -51 43 -12
93 -20 110 -19 39 3 117 -18 117 -31 0 -6 -4 -10 -10 -10 -5 0 -21 -22 -35
-50 -14 -27 -33 -53 -42 -58 -42 -21 -125 -34 -215 -33 -85 1 -125 -8 -100
-23 14 -8 206 -10 234 -2 l28 8 -16 -37 c-21 -52 -13 -52 24 0 33 46 49 53 84
34 26 -14 33 -6 12 16 -16 15 -16 18 3 36 33 33 93 -3 77 -46 -4 -8 -12 -15
-20 -15 -70 0 113 -77 221 -93 73 -11 450 -16 545 -7 81 7 79 -13 -12 -108
-40 -42 -146 -169 -235 -282 -88 -113 -223 -272 -298 -355 -228 -250 -249
-284 -213 -351 19 -36 19 -46 2 -89 -7 -19 -7 -19 13 -3 11 10 24 18 30 18 20
0 178 -176 292 -326 63 -82 135 -174 161 -204 57 -67 140 -187 140 -203 0 -12
-84 -141 -152 -234 -21 -29 -36 -53 -34 -53 3 0 30 33 59 73 30 41 87 103 126
138 71 63 119 130 239 330 53 89 76 109 98 87 7 -8 23 -145 43 -368 42 -471
49 -610 57 -1077 8 -428 9 -413 -45 -413 -31 0 -16 -17 19 -22 25 -3 25 -5 32
-128 5 -69 11 -255 15 -415 l8 -290 25 -3 c14 -2 30 -8 37 -14 7 -6 18 -5 30
2 14 9 297 5 1153 -15 1466 -33 2187 -41 2434 -26 207 13 233 19 215 54 -6 12
-22 31 -35 42 -13 11 -25 31 -26 45 -3 20 5 29 37 45 38 19 97 23 230 16 11 0
40 2 65 5 60 7 96 -8 122 -52 l21 -36 36 42 c47 54 101 63 179 30 l51 -22 34
21 c39 24 74 27 112 9 19 -9 34 -8 64 2 36 12 44 11 81 -9 39 -20 44 -21 66
-6 13 8 39 15 58 15 27 0 39 -7 56 -30 l22 -31 34 31 c44 39 86 40 119 4 14
-15 25 -31 25 -35 0 -18 27 -8 39 14 21 40 69 61 139 61 59 1 65 -1 73 -22 8
-20 3 -30 -27 -60 -36 -36 -36 -36 -15 -50 11 -8 21 -23 21 -33 0 -29 17 -31
64 -11 36 16 48 30 72 77 33 66 64 93 113 100 19 2 38 8 43 13 9 9 25 353 53
1132 39 1109 46 1302 60 1569 17 332 11 433 -33 521 -36 73 -67 89 -189 100
-92 9 -669 36 -1253 60 -140 5 -299 13 -353 16 l-97 6 -70 102 c-166 244 -473
613 -590 710 -215 179 -509 362 -636 395 -45 12 -115 4 -92 -10 10 -7 3 -27
-31 -95 -108 -213 -310 -384 -545 -464 -315 -107 -697 -86 -991 55 -127 61
-214 124 -302 219 -59 63 -133 166 -133 185 0 6 10 12 23 14 12 2 1 5 -24 6
-25 0 -48 -2 -52 -5 -17 -17 88 -167 175 -250 83 -79 115 -102 228 -166 170
-95 389 -152 635 -165 451 -23 828 191 1052 597 20 36 37 66 39 68 4 6 147
-69 241 -126 66 -40 92 -61 88 -72 -9 -29 -67 -366 -81 -469 -21 -155 -23
-296 -4 -296 18 0 25 34 39 185 11 113 60 431 82 522 l11 47 26 -17 c168 -106
342 -268 487 -451 50 -62 114 -143 142 -180 29 -36 58 -72 63 -79 65 -76 173
-232 167 -238 -2 -3 -108 0 -233 5 -522 24 -2345 73 -2664 73 -514 -1 -954
-74 -1047 -174 -33 -35 -62 -111 -78 -206 -19 -107 -36 -374 -29 -439 7 -53
21 -26 -193 -359 -7 -10 -26 -41 -42 -67 l-28 -48 -44 68 c-104 160 -405 529
-548 672 l-105 103 24 46 c14 25 87 111 165 191 166 173 175 185 346 411 174
230 206 266 310 350 67 54 104 76 150 90 67 21 79 31 79 72 0 41 84 107 224
177 117 58 256 111 293 111 13 0 15 2 5 9 -17 10 -83 -2 -149 -28 -73 -29
-240 -114 -293 -150 -58 -40 -76 -39 -84 0 -3 17 -6 169 -6 338 1 270 5 341
27 478 4 28 1 34 -18 41 -36 14 -396 20 -649 12z m641 -37 c10 -10 10 -18 -1
-38 -13 -24 -17 -25 -59 -18 -123 21 -791 -2 -968 -33 -26 -5 -32 -2 -38 17
-14 44 18 55 197 68 90 7 174 14 188 16 14 2 170 2 347 1 239 -1 325 -4 334
-13z m-63 -99 l22 -6 0 -423 c0 -330 3 -424 13 -428 14 -5 -71 -30 -193 -58
-196 -45 -720 -28 -777 25 -9 8 -16 81 -23 226 -22 475 -29 625 -26 627 6 7
330 35 488 43 186 9 454 5 496 -6z m-1028 -113 c0 -15 -10 -20 -47 -25 -27 -4
-61 -9 -78 -12 -47 -9 -17 15 47 37 67 23 78 23 78 0z m18 -273 c2 -16 0 -28
-5 -28 -15 0 -93 35 -93 42 0 9 30 16 65 15 25 -2 31 -7 33 -29z m4346 -2152
c59 -18 103 -48 138 -94 l28 -35 -36 -31 c-66 -59 -54 -156 21 -156 52 0 79
40 72 108 l-6 52 33 0 c47 0 96 -37 113 -85 55 -156 -70 -360 -287 -468 -181
-90 -383 -128 -501 -94 -100 30 -173 119 -155 190 11 44 53 84 100 96 57 14
76 7 76 -30 0 -43 25 -95 54 -114 22 -15 31 -15 56 -5 77 32 38 146 -65 190
-103 44 -135 189 -69 311 73 133 275 211 428 165z m186 -204 c0 -15 -7 -38
-16 -50 -13 -18 -19 -21 -30 -11 -16 13 -10 44 14 72 22 24 32 21 32 -11z
m-506 -354 c20 -28 21 -58 1 -58 -17 0 -44 49 -38 68 7 18 20 15 37 -10z
m1490 -76 c7 -12 -5 -52 -15 -52 -13 0 -22 27 -15 45 6 16 22 20 30 7z m-3659
-27 c232 -24 420 -48 427 -54 6 -6 -5 -125 -38 -395 -8 -70 -18 -134 -21 -142
-7 -19 -212 -19 -438 1 -93 8 -176 15 -182 15 -10 0 -13 49 -13 213 0 116 3
249 7 295 l6 82 56 0 c31 0 119 -7 196 -15z m3522 -51 c33 -33 19 -49 -36 -39
-31 5 -41 11 -41 25 0 17 24 39 43 40 4 0 20 -12 34 -26z m275 -74 c69 -21
140 -66 158 -100 11 -20 10 -21 -9 -10 -24 13 -28 2 -5 -14 16 -12 -3 -14 -86
-6 l-35 3 35 6 c19 3 37 3 38 -1 2 -5 11 -8 20 -8 15 0 15 1 1 16 -20 19 -89
36 -89 22 0 -6 -7 -7 -17 -2 -29 12 -97 13 -111 1 -10 -8 -16 -7 -22 2 -5 9
-9 10 -14 2 -4 -6 -12 -9 -17 -6 -5 4 -9 1 -9 -5 0 -7 -6 -10 -12 -7 -7 2 -19
-3 -26 -12 -8 -9 -11 -10 -7 -3 8 15 -21 16 -31 0 -5 -7 -3 -8 6 -3 9 5 11 4
6 -4 -4 -6 -12 -9 -17 -5 -5 3 -23 -6 -39 -20 -29 -24 -29 -25 -7 -28 19 -3
17 -6 -17 -21 -22 -10 -41 -15 -44 -12 -3 2 6 8 18 13 13 5 19 11 14 14 -5 4
-20 -2 -33 -13 -13 -10 -19 -19 -15 -19 5 0 1 -7 -10 -15 -11 -8 -15 -19 -11
-27 4 -7 0 -5 -10 4 -17 16 -17 19 2 65 19 46 22 48 67 55 59 8 80 27 105 92
15 41 24 52 47 57 55 12 112 9 176 -11z m-259 -40 c-10 -37 -93 -92 -93 -61 0
11 77 81 89 81 5 0 7 -9 4 -20z m340 -67 c-7 -2 -21 -2 -30 0 -10 3 -4 5 12 5
17 0 24 -2 18 -5z m-223 -23 c0 -5 -7 -7 -15 -4 -8 4 -15 8 -15 10 0 2 7 4 15
4 8 0 15 -4 15 -10z m60 0 c0 -5 -4 -10 -10 -10 -5 0 -10 5 -10 10 0 6 5 10
10 10 6 0 10 -4 10 -10z m271 -61 c-5 -13 -10 -19 -10 -12 -1 15 10 45 15 40
3 -2 0 -15 -5 -28z m16 -21 c-3 -8 -6 -5 -6 6 -1 11 2 17 5 13 3 -3 4 -12 1
-19z m-30 -50 c-3 -7 -5 -2 -5 12 0 14 2 19 5 13 2 -7 2 -19 0 -25z m110 -10
c-3 -8 -6 -5 -6 6 -1 11 2 17 5 13 3 -3 4 -12 1 -19z m-459 -40 c7 -7 12 -17
12 -22 0 -6 -7 -3 -15 8 -8 11 -20 16 -30 12 -9 -3 -13 -2 -10 4 8 14 28 13
43 -2z m92 8 c0 -2 -7 -6 -15 -10 -8 -3 -15 -1 -15 4 0 6 7 10 15 10 8 0 15
-2 15 -4z m32 -61 c-6 -12 -9 -5 -10 27 0 40 0 41 9 16 7 -17 7 -34 1 -43z
m113 55 c-3 -5 -11 -10 -16 -10 -6 0 -7 5 -4 10 3 6 11 10 16 10 6 0 7 -4 4
-10z m-463 -55 c3 -13 1 -22 -3 -19 -9 5 -13 44 -5 44 2 0 6 -11 8 -25z m267
-13 c-5 -2 -9 -13 -9 -25 0 -18 -2 -19 -10 -7 -6 9 -6 18 0 24 6 6 10 19 11
31 0 20 0 20 8 0 5 -11 4 -21 0 -23z m417 -44 c-10 -28 -14 -32 -10 -13 3 17
6 46 5 65 0 31 1 33 11 13 8 -16 6 -32 -6 -65z m-160 35 c-11 -11 -17 4 -9 23
7 18 8 18 11 1 2 -10 1 -21 -2 -24z m93 -5 c1 -5 -3 -8 -9 -8 -5 0 -10 12 -9
28 0 24 1 25 9 7 5 -11 9 -23 9 -27z m-165 -4 c3 -8 13 -14 21 -14 15 0 15 -2
1 -15 -8 -8 -17 -15 -20 -15 -3 0 -6 7 -6 15 0 21 -17 19 -23 -2 -3 -10 -4 -2
-3 18 1 36 18 44 30 13z m126 -21 c0 -19 -13 -9 -16 12 -1 8 2 13 7 9 5 -3 9
-12 9 -21z m-351 3 c-11 -9 -63 -17 -54 -8 6 6 19 12 30 14 20 4 32 1 24 -6z
m-1245 -39 c17 -42 23 -36 -61 -67 -18 -7 -33 -19 -33 -26 0 -18 17 -18 70 1
23 8 44 15 45 15 2 0 8 -13 13 -29 12 -35 7 -41 -56 -61 -48 -15 -54 -20 -43
-39 6 -9 20 -8 61 8 30 11 55 20 56 18 4 -4 24 -81 21 -82 -6 -4 -174 -66
-182 -68 -8 -2 -69 322 -62 330 2 2 151 39 153 39 1 -1 9 -18 18 -39z m1020
28 c3 -8 1 -15 -4 -15 -6 0 -10 7 -10 15 0 8 2 15 4 15 2 0 6 -7 10 -15z m294
-33 c-11 -2 -28 3 -36 12 -11 11 -12 16 -4 16 7 0 12 -4 12 -10 0 -5 5 -10 10
-10 6 0 10 8 10 17 0 15 2 14 14 -3 13 -17 13 -19 -6 -22z m-148 7 c0 -5 -7
-9 -15 -9 -9 0 -12 6 -9 15 6 15 24 11 24 -6z m77 15 c-3 -3 -12 -4 -19 -1 -8
3 -5 6 6 6 11 1 17 -2 13 -5z m173 -25 c0 -5 -4 -9 -8 -9 -5 0 -9 7 -9 15 0 8
4 12 9 9 4 -3 8 -9 8 -15z m95 11 c3 -5 1 -10 -4 -10 -6 0 -11 5 -11 10 0 6 2
10 4 10 3 0 8 -4 11 -10z m104 -33 c1 -5 -3 -5 -9 -2 -5 3 -10 16 -9 28 0 21
1 21 9 2 5 -11 9 -24 9 -28z m-568 14 c-7 -5 -10 -14 -6 -20 5 -9 10 -9 21 0
9 7 14 8 14 1 0 -6 -5 -12 -12 -14 -15 -5 27 -68 46 -68 7 0 28 -13 46 -30 18
-16 44 -30 58 -30 13 0 30 -7 38 -15 19 -19 18 -19 -42 2 -27 9 -61 26 -76 39
-15 12 -31 24 -35 26 -11 4 -69 80 -75 98 -4 11 1 16 15 18 16 1 18 -1 8 -7z
m59 -1 c0 -5 -2 -10 -4 -10 -3 0 -8 5 -11 10 -3 6 -1 10 4 10 6 0 11 -4 11
-10z m562 -42 c-7 -7 -12 -8 -12 -2 0 14 12 26 19 19 2 -3 -1 -11 -7 -17z
m-257 -8 c3 -5 1 -10 -4 -10 -6 0 -11 5 -11 10 0 6 2 10 4 10 3 0 8 -4 11 -10z
m245 -24 c0 -25 -126 -146 -152 -146 -6 0 17 20 49 44 33 25 68 61 78 80 22
40 25 43 25 22z m-117 -13 c-6 -16 -5 -16 10 -4 9 7 17 10 17 5 0 -5 -13 -18
-28 -29 -17 -12 -22 -13 -15 -4 7 9 10 19 7 22 -3 3 -3 10 1 16 10 17 15 13 8
-6z m-1978 -55 c6 -2 11 11 13 29 l3 32 52 -6 c29 -3 53 -7 55 -8 4 -3 -24
-170 -45 -264 l-16 -75 -19 25 c-20 24 -84 133 -125 212 l-21 42 36 38 37 38
10 -31 c5 -16 15 -31 20 -32z m1935 -7 c0 -5 -14 -14 -31 -20 -49 -17 -58 -13
-19 8 41 22 50 24 50 12z m-153 -7 c-3 -3 -12 -4 -19 -1 -8 3 -5 6 6 6 11 1
17 -2 13 -5z m-50 -10 c-3 -3 -12 -4 -19 -1 -8 3 -5 6 6 6 11 1 17 -2 13 -5z
m-1937 -40 c83 -45 115 -134 85 -237 -17 -59 -26 -71 -60 -74 -11 -1 -38 -5
-61 -8 -41 -7 -90 9 -120 40 -16 15 -44 82 -44 104 0 45 26 99 66 140 24 24
44 48 44 53 0 16 43 8 90 -18z m2030 15 c-35 -10 -83 -10 -98 -1 -7 5 18 8 55
8 44 0 59 -2 43 -7z m-2630 -101 c6 -24 14 -59 19 -78 5 -19 15 -70 22 -113
10 -60 16 -76 27 -72 17 6 190 35 212 35 11 0 20 -18 29 -61 7 -34 10 -63 8
-65 -3 -4 -214 -42 -365 -67 -17 -3 -55 140 -83 317 -25 148 -26 146 63 146
l57 0 11 -42z m499 -284 c2 -2 -3 -4 -11 -4 -9 0 -26 9 -39 20 l-24 21 35 -17
c19 -9 37 -18 39 -20z"/>
<path d="M3216 5481 c-17 -18 -16 -23 9 -93 30 -84 84 -185 113 -211 19 -18
21 -17 67 40 83 101 121 204 95 254 -20 37 -95 13 -127 -41 -21 -36 -26 -37
-46 -7 -25 38 -65 77 -80 77 -8 0 -22 -9 -31 -19z"/>
<path d="M7130 2905 c-17 -20 -4 -65 19 -65 9 0 24 11 31 25 12 22 11 27 -6
40 -24 18 -29 18 -44 0z"/>
<path d="M7077 2843 c-4 -3 -7 -18 -8 -32 0 -26 0 -26 -11 -3 -12 25 -46 30
-54 7 -7 -17 51 -95 70 -95 18 0 56 47 56 70 0 11 -8 29 -17 40 -19 21 -26 24
-36 13z"/>
<path d="M6932 2808 c-18 -18 -15 -42 7 -55 16 -10 22 -8 37 8 16 18 16 20 -1
39 -21 23 -27 24 -43 8z"/>
<path d="M4596 2486 c-30 -9 -42 -20 -49 -42 -12 -43 -14 -341 -2 -353 6 -6
69 -18 140 -26 215 -26 242 -28 249 -17 3 6 9 57 12 114 3 57 8 121 11 143 3
22 8 65 10 96 4 54 4 56 -24 67 -60 23 -296 35 -347 18z m148 -58 c-1 -10 -2
-43 -3 -73 -1 -51 -3 -55 -25 -55 -25 0 -33 16 -50 92 -3 14 -9 34 -12 43 -6
14 0 16 42 13 39 -2 49 -6 48 -20z m-120 -59 c9 -39 16 -72 14 -74 -12 -10
-51 -26 -54 -22 -7 7 8 167 16 167 4 0 14 -32 24 -71z m235 65 l31 -6 -36 -69
c-34 -64 -55 -82 -69 -59 -3 5 -3 39 1 75 7 70 9 72 73 59z m43 -142 c-7 -60
-8 -62 -27 -49 -19 15 -19 15 5 66 13 28 25 50 26 48 2 -2 0 -31 -4 -65z"/>
<path d="M4690 2404 c0 -8 5 -12 10 -9 6 3 10 1 10 -6 0 -7 2 -10 5 -7 8 7 -5
38 -16 38 -5 0 -9 -7 -9 -16z"/>
<path d="M6307 1682 c-15 -15 -27 -33 -27 -40 0 -7 -4 -12 -10 -12 -27 0 9
-79 50 -107 18 -12 26 -13 44 -3 28 15 56 61 56 92 0 26 -54 98 -74 98 -7 0
-24 -13 -39 -28z"/>
<path d="M6013 5635 c0 -22 2 -30 4 -17 2 12 2 30 0 40 -3 9 -5 -1 -4 -23z"/>
<path d="M6030 5555 c0 -5 5 -17 10 -25 5 -8 10 -10 10 -5 0 6 -5 17 -10 25
-5 8 -10 11 -10 5z"/>
<path d="M2170 5388 c-15 -21 -17 -28 -6 -19 16 13 41 51 33 51 -2 0 -14 -15
-27 -32z"/>
<path d="M6458 5333 c7 -3 16 -2 19 1 4 3 -2 6 -13 5 -11 0 -14 -3 -6 -6z"/>
<path d="M6570 5249 c0 -5 5 -7 10 -4 6 3 10 8 10 11 0 2 -4 4 -10 4 -5 0 -10
-5 -10 -11z"/>
<path d="M6543 5206 c-9 -11 -9 -15 0 -19 7 -3 14 3 14 14 2 22 2 22 -14 5z"/>
<path d="M4373 5175 c-8 -22 6 -33 17 -15 13 20 12 30 0 30 -6 0 -13 -7 -17
-15z"/>
<path d="M4412 5140 c0 -14 2 -19 5 -12 2 6 2 18 0 25 -3 6 -5 1 -5 -13z"/>
<path d="M4243 5137 c8 -6 4 -7 -11 -4 -12 3 -20 1 -16 -4 8 -13 35 -11 64 5
24 14 24 14 -13 13 -24 -1 -33 -4 -24 -10z"/>
<path d="M6486 5125 c-9 -14 -14 -31 -10 -37 4 -6 3 -8 -4 -4 -6 3 -14 1 -17
-5 -5 -7 -1 -10 10 -7 9 1 23 20 30 41 15 44 13 46 -9 12z"/>
<path d="M6850 5140 c0 -5 -8 -7 -17 -3 -13 4 -15 3 -8 -5 14 -15 47 -19 52
-6 2 6 -3 14 -12 17 -8 4 -15 2 -15 -3z"/>
<path d="M2072 5064 c-1 -45 -4 -103 -7 -130 -5 -40 -4 -45 5 -25 6 14 9 70 7
130 -2 98 -3 100 -5 25z"/>
<path d="M4380 5130 c0 -5 5 -10 10 -10 6 0 10 5 10 10 0 6 -4 10 -10 10 -5 0
-10 -4 -10 -10z"/>
<path d="M6542 5104 c-2 -29 9 -31 25 -5 10 16 9 20 -5 24 -13 3 -18 -2 -20
-19z"/>
<path d="M4156 5098 c3 -4 12 -8 20 -8 8 0 14 4 14 8 0 4 -9 8 -19 8 -11 0
-17 -4 -15 -8z"/>
<path d="M6722 5101 c-11 -6 -10 -10 4 -15 20 -8 32 0 18 14 -5 5 -15 5 -22 1z"/>
<path d="M4284 5089 c-3 -6 0 -15 7 -20 22 -14 29 -11 29 11 0 21 -24 27 -36
9z"/>
<path d="M4494 5070 c0 -10 2 -17 5 -15 2 3 11 -1 19 -8 11 -9 11 -4 -2 16
-22 32 -22 32 -22 7z"/>
<path d="M6497 5063 c-13 -12 -7 -23 13 -23 11 0 20 7 20 15 0 15 -21 21 -33
8z"/>
<path d="M4078 5043 c7 -3 16 -2 19 1 4 3 -2 6 -13 5 -11 0 -14 -3 -6 -6z"/>
<path d="M4398 5028 c9 -9 15 -9 24 0 9 9 7 12 -12 12 -19 0 -21 -3 -12 -12z"/>
<path d="M4471 5024 c0 -11 3 -14 6 -6 3 7 2 16 -1 19 -3 4 -6 -2 -5 -13z"/>
<path d="M6703 4999 c-16 -16 2 -49 26 -49 16 0 18 5 12 27 -8 31 -22 38 -38
22z"/>
<path d="M6810 4992 c0 -10 -5 -23 -12 -30 -9 -9 -9 -15 0 -24 9 -9 12 -8 13
8 0 18 1 18 9 -1 5 -11 9 -15 10 -10 8 56 7 64 -6 69 -9 3 -14 -1 -14 -12z"/>
<path d="M4514 4986 c-10 -25 22 -66 51 -66 14 0 25 3 25 8 -1 9 -30 44 -52
61 -15 11 -19 11 -24 -3z"/>
<path d="M4473 4955 c0 -22 2 -30 4 -17 2 12 2 30 0 40 -3 9 -5 -1 -4 -23z"/>
<path d="M6380 4970 c0 -5 7 -10 16 -10 8 0 12 5 9 10 -3 6 -10 10 -16 10 -5
0 -9 -4 -9 -10z"/>
<path d="M7046 4971 c-5 -7 -1 -8 10 -4 11 4 15 2 11 -4 -11 -18 18 -45 54
-49 20 -2 29 -1 21 4 -7 5 -14 18 -15 30 0 11 -8 20 -17 20 -8 0 -25 3 -36 7
-12 4 -25 2 -28 -4z"/>
<path d="M3940 4945 c0 -8 9 -15 20 -15 11 0 20 7 20 15 0 8 -9 15 -20 15 -11
0 -20 -7 -20 -15z"/>
<path d="M6570 4930 c-13 -8 -12 -10 3 -10 9 0 17 -4 17 -10 0 -5 11 -10 25
-10 14 0 25 5 25 10 0 6 -8 10 -18 10 -10 0 -22 4 -28 10 -6 6 -15 6 -24 0z"/>
<path d="M7000 4906 c0 -14 5 -26 10 -26 6 0 10 9 10 19 0 11 -4 23 -10 26 -6
4 -10 -5 -10 -19z"/>
<path d="M6300 4906 c0 -11 -5 -14 -12 -10 -6 4 -8 3 -4 -4 7 -11 46 -12 46
-1 0 4 -7 12 -15 19 -12 10 -15 9 -15 -4z"/>
<path d="M4230 4895 c0 -8 7 -15 16 -15 14 0 14 3 4 15 -7 8 -14 15 -16 15 -2
0 -4 -7 -4 -15z"/>
<path d="M6386 4901 c-4 -7 -5 -15 -2 -18 9 -9 19 4 14 18 -4 11 -6 11 -12 0z"/>
<path d="M6930 4905 c-1 -5 -3 -19 -6 -30 -2 -11 -1 -33 3 -50 6 -29 7 -29 15
14 4 25 3 51 -2 60 -5 9 -10 12 -10 6z"/>
<path d="M4395 4890 c-3 -5 1 -10 9 -10 9 0 16 5 16 10 0 6 -4 10 -9 10 -6 0
-13 -4 -16 -10z"/>
<path d="M7193 4892 c-8 -5 -7 -11 2 -19 10 -10 14 -9 19 2 6 17 -5 26 -21 17z"/>
<path d="M6801 4864 c0 -11 3 -14 6 -6 3 7 2 16 -1 19 -3 4 -6 -2 -5 -13z"/>
<path d="M4680 4859 c0 -28 17 -42 44 -35 18 4 25 3 24 -6 -2 -7 2 -13 7 -13
6 -1 22 -7 38 -15 15 -7 30 -10 34 -7 3 4 4 8 2 10 -48 28 -92 46 -101 41 -8
-5 -9 -2 -5 9 3 10 2 17 -2 17 -5 0 -16 3 -25 6 -10 4 -16 1 -16 -7z"/>
<path d="M3834 4831 c7 -11 -17 -21 -49 -21 -12 0 -25 -7 -29 -15 -7 -20 18
-19 49 1 15 10 32 13 47 9 23 -8 23 -7 4 14 -19 21 -32 28 -22 12z"/>
<path d="M6206 4828 c3 -4 12 -8 20 -8 8 0 14 4 14 8 0 4 -9 8 -19 8 -11 0
-17 -4 -15 -8z"/>
<path d="M6807 4819 c4 -13 8 -18 11 -10 2 7 -1 18 -6 23 -8 8 -9 4 -5 -13z"/>
<path d="M3788 4823 c7 -3 16 -2 19 1 4 3 -2 6 -13 5 -11 0 -14 -3 -6 -6z"/>
<path d="M7284 4812 c-6 -4 -8 -16 -4 -26 6 -18 7 -18 13 4 7 28 6 32 -9 22z"/>
<path d="M7198 4805 c-10 -10 4 -56 16 -52 6 2 9 13 8 23 -4 22 -16 37 -24 29z"/>
<path d="M2293 4777 c-8 -13 15 -25 63 -33 67 -10 66 -6 54 -149 -32 -393 5
-843 135 -1660 18 -117 25 -199 25 -303 0 -111 3 -143 13 -140 17 6 27 108 21
213 -3 50 -19 179 -35 288 -20 133 -27 203 -20 214 7 13 4 20 -12 28 -41 20
-69 237 -104 794 -14 230 -15 307 -6 469 12 195 22 242 56 242 7 0 22 6 32 14
18 13 15 14 -25 9 -25 -2 -78 2 -118 10 -45 9 -75 10 -79 4z"/>
<path d="M6925 4781 c-3 -5 -1 -12 5 -16 5 -3 10 1 10 9 0 18 -6 21 -15 7z"/>
<path d="M3907 4773 c-25 -6 -11 -23 19 -23 15 0 24 5 22 12 -5 14 -17 17 -41
11z"/>
<path d="M6986 4764 c-10 -27 -7 -44 9 -44 10 0 15 10 15 30 0 32 -14 40 -24
14z"/>
<path d="M3670 4739 c0 -6 -4 -8 -8 -5 -4 2 -8 -4 -8 -14 0 -17 2 -18 16 -5 9
8 27 15 40 15 30 0 23 7 -13 14 -15 2 -27 0 -27 -5z"/>
<path d="M3800 4730 c0 -5 14 -10 31 -10 17 0 28 4 24 10 -3 6 -17 10 -31 10
-13 0 -24 -4 -24 -10z"/>
<path d="M3960 4730 c0 -5 9 -10 20 -10 11 0 20 5 20 10 0 6 -9 10 -20 10 -11
0 -20 -4 -20 -10z"/>
<path d="M4730 4730 c-11 -7 3 -10 45 -9 43 0 54 3 40 9 -27 12 -67 12 -85 0z"/>
<path d="M7255 4730 c-3 -5 1 -10 9 -10 9 0 16 5 16 10 0 6 -4 10 -9 10 -6 0
-13 -4 -16 -10z"/>
<path d="M7298 4723 c7 -3 16 -2 19 1 4 3 -2 6 -13 5 -11 0 -14 -3 -6 -6z"/>
<path d="M6740 4682 c0 -21 3 -42 7 -45 13 -13 33 16 33 49 0 27 -4 34 -20 34
-17 0 -20 -7 -20 -38z"/>
<path d="M7383 4653 c-13 -13 -23 -30 -23 -38 0 -20 26 -19 34 0 3 8 12 15 21
15 18 0 20 24 3 37 -9 6 -20 2 -35 -14z"/>
<path d="M5029 4657 c7 -7 18 -7 33 0 20 9 20 10 -10 10 -22 0 -29 -4 -23 -10z"/>
<path d="M5900 4660 c14 -4 19 -8 11 -9 -8 -1 -12 -3 -10 -6 3 -2 16 -1 29 2
22 6 23 7 4 14 -10 4 -28 7 -39 7 -16 0 -15 -2 5 -8z"/>
<path d="M3576 4645 c-23 -23 -20 -35 8 -35 31 0 43 18 24 37 -13 13 -17 12
-32 -2z"/>
<path d="M5968 4649 c-24 -13 -23 -29 1 -29 10 0 21 9 24 20 6 22 0 24 -25 9z"/>
<path d="M4490 4635 c0 -8 5 -15 10 -15 6 0 10 7 10 15 0 8 -4 15 -10 15 -5 0
-10 -7 -10 -15z"/>
<path d="M5148 4643 c-43 -7 -33 -23 13 -23 36 0 40 2 29 15 -7 8 -13 14 -14
14 0 -1 -13 -4 -28 -6z"/>
<path d="M5770 4640 c-12 -8 -12 -10 3 -16 21 -8 35 2 21 16 -5 5 -15 6 -24 0z"/>
<path d="M7446 4626 c5 -14 4 -17 -4 -12 -7 4 -12 1 -12 -8 0 -8 -2 -21 -5
-28 -4 -9 1 -14 13 -14 14 0 18 7 18 32 -1 18 -5 36 -9 40 -4 5 -5 0 -1 -10z"/>
<path d="M5348 4618 c19 -24 72 -30 117 -13 l40 14 -51 1 c-28 0 -67 3 -85 7
-30 6 -32 5 -21 -9z"/>
<path d="M5600 4610 c0 -5 9 -10 20 -10 11 0 20 5 20 10 0 6 -9 10 -20 10 -11
0 -20 -4 -20 -10z"/>
<path d="M5248 4593 c6 -2 18 -2 25 0 6 3 1 5 -13 5 -14 0 -19 -2 -12 -5z"/>
<path d="M3516 4574 c-17 -16 -20 -27 -10 -36 7 -8 44 28 44 42 0 15 -16 12
-34 -6z"/>
<path d="M4506 4575 c4 -8 13 -15 21 -15 12 0 12 2 -1 15 -8 8 -17 15 -20 15
-3 0 -3 -7 0 -15z"/>
<path d="M5795 4570 c-16 -7 -13 -9 18 -9 20 -1 37 4 37 9 0 12 -27 12 -55 0z"/>
<path d="M5120 4551 c0 -17 3 -18 30 -8 17 6 30 15 30 19 0 4 -13 8 -30 8 -23
0 -30 -5 -30 -19z"/>
<path d="M5748 4563 c7 -3 16 -2 19 1 4 3 -2 6 -13 5 -11 0 -14 -3 -6 -6z"/>
<path d="M6740 4548 c0 -27 13 -58 21 -52 16 9 10 64 -6 64 -8 0 -15 -6 -15
-12z"/>
<path d="M7263 4548 c4 -14 36 -12 52 3 5 5 -4 9 -24 9 -22 0 -31 -4 -28 -12z"/>
<path d="M7200 4509 c0 -5 5 -7 10 -4 6 3 10 8 10 11 0 2 -4 4 -10 4 -5 0 -10
-5 -10 -11z"/>
<path d="M7357 4496 c-18 -14 -17 -15 3 -21 24 -8 46 7 36 24 -9 14 -17 13
-39 -3z"/>
<path d="M7529 4503 c0 -4 -2 -17 -4 -27 -2 -11 6 -27 19 -37 15 -12 23 -29
24 -54 1 -20 4 -40 7 -45 11 -18 26 -10 24 13 -2 12 0 27 4 33 4 7 -2 23 -13
37 -11 14 -20 30 -20 36 0 6 -5 11 -11 11 -5 0 -8 3 -6 8 3 4 -1 13 -9 20 -8
7 -14 9 -15 5z"/>
<path d="M3445 4470 c-18 -19 -17 -20 3 -20 12 0 26 9 32 20 8 16 8 20 -3 20
-8 0 -22 -9 -32 -20z"/>
<path d="M3683 4435 c0 -22 2 -30 4 -17 2 12 2 30 0 40 -3 9 -5 -1 -4 -23z"/>
<path d="M5263 4425 c-6 -14 -7 -25 -2 -25 11 0 22 25 17 39 -1 6 -8 -1 -15
-14z"/>
<path d="M6720 4412 c0 -18 5 -32 10 -32 6 0 8 11 4 28 -10 39 -14 40 -14 4z"/>
<path d="M3506 4421 c-4 -7 -5 -15 -2 -18 9 -9 19 4 14 18 -4 11 -6 11 -12 0z"/>
<path d="M7439 4423 c0 -5 -2 -18 -5 -30 -2 -13 0 -23 5 -23 15 0 33 29 27 45
-6 15 -25 21 -27 8z"/>
<path d="M7230 4405 c-15 -18 -5 -35 22 -35 14 0 18 5 14 16 -3 9 -6 20 -6 25
0 14 -16 11 -30 -6z"/>
<path d="M4000 4380 c0 -11 4 -20 8 -20 4 0 8 9 9 20 1 11 -2 20 -8 20 -5 0
-9 -9 -9 -20z"/>
<path d="M4295 4390 c3 -5 8 -10 11 -10 2 0 4 5 4 10 0 6 -5 10 -11 10 -5 0
-7 -4 -4 -10z"/>
<path d="M5614 4385 c21 -16 32 -13 21 4 -3 6 -14 11 -23 11 -15 -1 -15 -2 2
-15z"/>
<path d="M6537 4394 c-4 -4 -7 -11 -7 -16 0 -13 50 -6 53 7 2 12 -36 19 -46 9z"/>
<path d="M3682 4365 c0 -16 2 -22 5 -12 2 9 2 23 0 30 -3 6 -5 -1 -5 -18z"/>
<path d="M4186 4375 c-3 -8 -15 -15 -26 -15 -11 0 -20 -5 -20 -11 0 -7 9 -9
23 -5 12 3 30 6 40 6 10 0 17 8 17 20 0 23 -25 27 -34 5z"/>
<path d="M5665 4350 c3 -5 12 -7 20 -3 21 7 19 13 -6 13 -11 0 -18 -4 -14 -10z"/>
<path d="M4240 4336 c0 -9 5 -16 10 -16 6 0 10 4 10 9 0 6 -4 13 -10 16 -5 3
-10 -1 -10 -9z"/>
<path d="M7611 4334 c0 -11 3 -14 6 -6 3 7 2 16 -1 19 -3 4 -6 -2 -5 -13z"/>
<path d="M6760 4331 c0 -21 13 -41 26 -41 8 0 14 -4 14 -10 0 -5 9 -10 20 -10
34 0 20 32 -25 56 -32 17 -35 17 -35 5z"/>
<path d="M7410 4336 c0 -2 7 -6 15 -10 8 -3 15 -1 15 4 0 6 -7 10 -15 10 -8 0
-15 -2 -15 -4z"/>
<path d="M7380 4312 c0 -10 34 -52 42 -52 2 0 3 14 0 30 -3 21 -10 30 -23 30
-11 0 -19 -4 -19 -8z"/>
<path d="M7680 4295 c0 -8 5 -15 10 -15 6 0 10 7 10 15 0 8 -4 15 -10 15 -5 0
-10 -7 -10 -15z"/>
<path d="M6400 4260 c0 -37 2 -39 35 -46 20 -3 39 -4 42 0 4 3 -3 6 -15 6 -12
0 -22 5 -22 10 0 6 -6 10 -13 10 -9 0 -12 10 -9 30 3 18 0 30 -7 30 -6 0 -11
-17 -11 -40z"/>
<path d="M6705 4280 c-8 -13 21 -48 31 -38 3 4 -1 16 -9 28 -10 15 -17 18 -22
10z"/>
<path d="M4270 4260 c0 -5 5 -10 11 -10 5 0 7 5 4 10 -3 6 -8 10 -11 10 -2 0
-4 -4 -4 -10z"/>
<path d="M4328 4233 c7 -3 16 -2 19 1 4 3 -2 6 -13 5 -11 0 -14 -3 -6 -6z"/>
<path d="M6118 4233 c23 -2 61 -2 85 0 23 2 4 4 -43 4 -47 0 -66 -2 -42 -4z"/>
<path d="M7090 4230 l-25 -8 25 0 c14 0 36 4 50 8 l25 8 -25 0 c-14 0 -36 -4
-50 -8z"/>
<path d="M3270 4223 c0 -6 -3 -18 -6 -26 -3 -8 2 -17 10 -20 22 -9 26 5 10 33
-7 14 -13 20 -14 13z"/>
<path d="M6808 4213 c7 -3 16 -2 19 1 4 3 -2 6 -13 5 -11 0 -14 -3 -6 -6z"/>
<path d="M4063 4203 c-30 -11 -9 -23 38 -23 35 0 49 4 47 12 -4 12 -62 20 -85
11z"/>
<path d="M3346 4191 c-4 -7 -5 -15 -2 -18 9 -9 19 4 14 18 -4 11 -6 11 -12 0z"/>
<path d="M3840 4180 c0 -11 5 -20 10 -20 6 0 10 9 10 20 0 11 -4 20 -10 20 -5
0 -10 -9 -10 -20z"/>
<path d="M3950 4150 c0 -5 -7 -10 -15 -10 -8 0 -15 -4 -15 -10 0 -6 10 -6 27
1 14 5 32 8 38 5 6 -2 12 2 12 10 0 8 -10 14 -24 14 -12 0 -23 -4 -23 -10z"/>
<path d="M3135 4089 c-10 -15 -2 -19 23 -12 12 3 19 9 16 14 -7 12 -31 11 -39
-2z"/>
<path d="M3250 4090 c-13 -8 -12 -10 3 -10 9 0 17 5 17 10 0 12 -1 12 -20 0z"/>
<path d="M3108 4046 c-14 -10 -15 -15 -5 -25 10 -11 8 -12 -8 -7 -11 3 -26 2
-33 -3 -11 -6 -10 -12 4 -25 15 -15 18 -16 25 -3 5 8 20 22 34 31 20 13 28 14
44 4 11 -7 24 -9 28 -5 9 9 -17 28 -29 21 -5 -3 -11 2 -14 10 -7 19 -23 20
-46 2z"/>
<path d="M3732 3953 c-1 -16 3 -23 11 -21 17 6 21 45 5 45 -8 0 -15 -11 -16
-24z"/>
<path d="M2990 3945 c-7 -9 -11 -18 -8 -20 3 -3 11 1 18 10 7 9 11 18 8 20 -3
3 -11 -1 -18 -10z"/>
<path d="M3711 3874 c-12 -51 -5 -119 13 -119 12 0 16 65 7 121 l-7 49 -13
-51z"/>
<path d="M3761 3904 c0 -11 3 -14 6 -6 3 7 2 16 -1 19 -3 4 -6 -2 -5 -13z"/>
<path d="M3780 3888 c0 -25 3 -29 10 -18 13 20 13 50 0 50 -5 0 -10 -15 -10
-32z"/>
<path d="M3026 3872 c-4 -18 -5 -36 -2 -39 11 -12 17 5 14 39 l-3 33 -9 -33z"/>
<path d="M2890 3809 c0 -5 5 -7 10 -4 6 3 10 8 10 11 0 2 -4 4 -10 4 -5 0 -10
-5 -10 -11z"/>
<path d="M2903 3746 c7 -6 22 -16 34 -23 19 -11 20 -10 10 10 -6 12 -20 23
-33 23 -18 2 -20 -1 -11 -10z"/>
<path d="M3001 3661 c13 -11 26 -18 28 -15 7 7 -21 34 -36 34 -10 0 -8 -6 8
-19z"/>
<path d="M3093 3555 c-10 -10 -9 -16 2 -25 8 -7 12 -17 8 -24 -4 -6 1 -5 10 3
20 16 22 47 4 54 -6 2 -18 -1 -24 -8z"/>
<path d="M3150 3471 c0 -5 5 -13 10 -16 6 -3 10 -2 10 4 0 5 -4 13 -10 16 -5
3 -10 2 -10 -4z"/>
<path d="M3187 3447 c-11 -29 -9 -43 4 -30 6 6 9 19 7 29 -3 18 -4 18 -11 1z"/>
<path d="M3732 3381 c-9 -26 -8 -31 4 -31 19 0 28 24 16 46 -8 14 -11 12 -20
-15z"/>
<path d="M3686 3284 c-4 -14 -5 -29 -2 -31 3 -3 8 7 12 21 3 15 4 29 1 32 -2
3 -8 -7 -11 -22z"/>
<path d="M3320 3276 c0 -2 6 -9 14 -15 10 -9 15 -8 19 2 3 8 -3 13 -14 14 -10
1 -19 0 -19 -1z"/>
<path d="M3357 3221 c7 -26 46 -29 41 -3 -2 9 -13 18 -25 20 -17 3 -20 -1 -16
-17z"/>
<path d="M3520 3195 c0 -14 5 -25 10 -25 6 0 10 11 10 25 0 14 -4 25 -10 25
-5 0 -10 -11 -10 -25z"/>
<path d="M3616 3189 c-12 -61 -13 -88 -4 -83 5 4 7 13 3 21 -3 9 2 27 10 40
11 16 13 29 7 40 -7 12 -11 9 -16 -18z"/>
<path d="M3447 3154 c-14 -15 -6 -34 14 -34 14 0 19 5 17 17 -3 18 -20 27 -31
17z"/>
<path d="M3475 3100 c3 -5 8 -10 11 -10 2 0 4 5 4 10 0 6 -5 10 -11 10 -5 0
-7 -4 -4 -10z"/>
<path d="M3239 2573 c-13 -16 -12 -17 4 -4 16 13 21 21 13 21 -2 0 -10 -8 -17
-17z"/>
<path d="M2452 1415 c-83 -13 -117 -25 -71 -25 14 0 52 5 85 11 32 6 113 15
179 19 l120 7 -115 0 c-63 1 -152 -5 -198 -12z"/>
<path d="M2823 1396 c32 -14 75 -36 96 -50 45 -31 51 -32 51 -6 0 14 7 20 23
20 12 0 29 5 37 10 10 7 -3 8 -41 4 -47 -5 -67 -2 -122 20 -36 14 -74 26 -84
26 -10 0 8 -11 40 -24z"/>
<path d="M3338 1393 c12 -2 30 -2 40 0 9 3 -1 5 -23 4 -22 0 -30 -2 -17 -4z"/>
<path d="M3565 1390 c8 -13 155 -13 175 0 10 7 -16 10 -83 10 -63 0 -96 -4
-92 -10z"/>
<path d="M2282 1353 c-24 -14 -58 -29 -75 -33 l-32 -8 32 -1 c25 -1 32 -6 35
-23 3 -21 5 -20 22 11 10 19 29 44 43 57 32 30 29 30 -25 -3z"/>
<path d="M2128 1313 c7 -3 16 -2 19 1 4 3 -2 6 -13 5 -11 0 -14 -3 -6 -6z"/>
<path d="M2560 1205 c0 -9 6 -18 14 -21 9 -4 17 -45 25 -142 7 -75 14 -149 16
-164 3 -21 -1 -32 -20 -44 -13 -9 -28 -13 -34 -10 -5 3 -59 15 -121 25 -71 12
-118 26 -131 37 -11 10 -38 54 -61 98 -36 72 -40 88 -40 150 1 37 -1 66 -4 63
-16 -16 -31 -192 -25 -292 8 -120 24 -167 67 -199 69 -50 546 -19 697 46 55
24 100 72 133 142 30 64 30 100 0 178 -12 35 -26 80 -30 101 -4 20 -11 37 -16
37 -6 0 -9 -3 -9 -7 7 -41 -4 -87 -24 -106 -13 -12 -41 -55 -62 -95 -21 -40
-51 -84 -67 -97 -29 -24 -146 -65 -197 -68 l-26 -2 3 80 c4 84 -11 189 -33
240 -7 17 -15 38 -19 48 -7 21 -36 23 -36 2z"/>
<path d="M1106 745 c-9 -26 -7 -32 5 -12 6 10 9 21 6 23 -2 3 -7 -2 -11 -11z"/>
<path d="M1086 695 c-9 -26 -7 -32 5 -12 6 10 9 21 6 23 -2 3 -7 -2 -11 -11z"/>
<path d="M1051 609 c-20 -58 -14 -95 22 -132 46 -49 91 -59 202 -45 61 8 376
12 972 13 486 1 886 5 890 8 3 4 -79 8 -183 8 -104 1 -290 4 -414 7 -379 9
-1077 5 -1232 -7 -178 -13 -213 -6 -241 51 -15 31 -16 43 -7 78 14 50 7 64 -9
19z"/>
<path d="M3235 450 l-30 -8 33 -1 c17 0 32 4 32 9 0 6 -1 9 -2 9 -2 -1 -16 -5
-33 -9z"/>
<path d="M3755 439 c-26 -6 -23 -7 18 -8 26 0 47 1 47 3 0 9 -37 12 -65 5z"/>
</g>
</svg>
